<?xml version="1.0" encoding="UTF-8" standalone="no"?>
<svg
   xmlns:dc="http://purl.org/dc/elements/1.1/"
   xmlns:cc="http://creativecommons.org/ns#"
   xmlns:rdf="http://www.w3.org/1999/02/22-rdf-syntax-ns#"
   xmlns:svg="http://www.w3.org/2000/svg"
   xmlns="http://www.w3.org/2000/svg"
   xmlns:sodipodi="http://sodipodi.sourceforge.net/DTD/sodipodi-0.dtd"
   xmlns:inkscape="http://www.inkscape.org/namespaces/inkscape"
   version="1.1"
   id="svg2"
   xml:space="preserve"
   width="880.34821"
   height="267.31445"
   viewBox="0 0 880.34824 267.31445"
   sodipodi:docname="ibrux (1).svg"
   inkscape:version="0.92.5 (0.92.5+68)"><metadata
     id="metadata8"><rdf:RDF><cc:Work
         rdf:about=""><dc:format>image/svg+xml</dc:format><dc:type
           rdf:resource="http://purl.org/dc/dcmitype/StillImage" /></cc:Work></rdf:RDF></metadata><defs
     id="defs6"><clipPath
       clipPathUnits="userSpaceOnUse"
       id="clipPath18"><path
         d="M 0,595.296 H 841.896 V 0 H 0 Z"
         id="path16"
         inkscape:connector-curvature="0" /></clipPath></defs><sodipodi:namedview
     pagecolor="#ffffff"
     bordercolor="#666666"
     borderopacity="1"
     objecttolerance="10"
     gridtolerance="10"
     guidetolerance="10"
     inkscape:pageopacity="0"
     inkscape:pageshadow="2"
     inkscape:window-width="1200"
     inkscape:window-height="722"
     id="namedview4"
     showgrid="false"
     inkscape:zoom="0.64379735"
     inkscape:cx="423.87353"
     inkscape:cy="135.65037"
     inkscape:window-x="0"
     inkscape:window-y="0"
     inkscape:window-maximized="1"
     inkscape:current-layer="g12" /><g
     id="g10"
     inkscape:groupmode="layer"
     inkscape:label="ibrux (1)"
     transform="matrix(1.3333333,0,0,-1.3333333,-137.39045,528.52807)"><g
       id="g12"><g
         id="g14"
         clip-path="url(#clipPath18)"><g
           id="g20"
           transform="translate(196.0967,317.5304)"><path
             d="m 0,0 c -3.639,1.909 -8.035,2.101 -11.243,2.242 -1.111,0.049 -2.224,0.071 -3.339,0.071 -3.884,0 -8.114,-0.282 -12.928,-0.861 -13.86,-1.668 -26.627,-5.03 -37.948,-9.994 -4.609,-2.02 -11.399,-5.274 -17.139,-10.181 -6.702,-5.725 -10.111,-11.148 -10.431,-16.58 -0.287,-4.901 1.858,-8.45 4.276,-11.953 2.287,-3.307 5.224,-6.141 8.729,-8.424 3.3,-2.147 6.764,-4.513 9.74,-7.257 0.229,-0.211 0.491,-0.439 0.773,-0.681 0.606,-0.525 1.868,-1.617 2.022,-2.021 0.01,-0.266 -0.353,-1.054 -0.569,-1.525 -0.295,-0.641 -0.628,-1.366 -0.83,-2.163 -0.509,-1.985 -0.844,-3.952 -1.003,-5.845 -0.328,-3.853 0.052,-7.439 1.123,-10.658 2.197,-6.593 7.628,-11.505 14.527,-13.14 1.956,-0.464 4.054,-0.697 6.24,-0.698 1.898,0 3.916,0.205 5.988,0.555 -0.405,2.094 -0.492,4.256 -0.259,6.381 -0.453,0.382 -0.901,0.782 -1.123,0.98 -0.279,0.25 -0.505,0.451 -0.648,0.568 -1.243,1.014 -2.371,2.072 -3.36,3.144 -2.038,2.206 -3.634,4.615 -4.743,7.162 -1.158,2.655 -1.749,5.709 -1.803,9.338 -0.03,1.754 0.035,3.492 0.194,5.16 0.033,0.323 0.109,0.67 0.183,1.027 0.254,1.234 0.601,2.923 -0.019,4.594 -0.801,2.157 -2.912,3.278 -4.451,4.096 -0.352,0.186 -0.688,0.361 -0.97,0.539 -1.336,0.847 -2.661,1.706 -3.964,2.596 -3.281,2.246 -5.642,4.127 -7.65,6.096 -3.344,3.275 -6.885,8.245 -4.781,13.328 0.268,0.644 0.617,1.298 1.033,1.931 l 0.218,0.323 c 0.869,1.25 2.05,2.466 3.648,3.744 16.024,13.244 44.189,18.989 69.63,22.862 l 8.431,1.284 z"
             style="fill:#1b75bc;fill-opacity:1;fill-rule:nonzero;stroke:none"
             id="path22"
             inkscape:connector-curvature="0" /></g><g
           id="g24"
           transform="translate(182.2349,298.7843)"><path
             d="m 0,0 c -3.472,-2.197 -5.837,-5.908 -7.562,-8.615 -0.599,-0.939 -1.174,-1.891 -1.731,-2.857 -1.943,-3.364 -3.814,-7.167 -5.719,-11.626 -5.486,-12.837 -8.958,-25.574 -10.32,-37.861 -0.554,-5.002 -1.131,-12.509 0.249,-19.934 1.606,-8.666 4.598,-14.331 9.142,-17.323 4.102,-2.699 8.247,-2.616 12.49,-2.273 4.007,0.327 7.93,1.453 11.66,3.347 3.51,1.785 7.291,3.602 11.154,4.807 0.298,0.093 0.627,0.206 0.977,0.328 0.758,0.264 2.335,0.811 2.761,0.741 0.236,-0.124 0.737,-0.833 1.037,-1.254 0.407,-0.577 0.869,-1.228 1.457,-1.801 1.465,-1.433 3.001,-2.707 4.561,-3.791 3.174,-2.211 6.469,-3.675 9.792,-4.357 6.807,-1.393 13.777,0.854 18.643,6.011 1.379,1.462 2.63,3.162 3.724,5.055 0.949,1.643 1.781,3.494 2.513,5.464 -2.016,0.695 -3.931,1.701 -5.654,2.965 -0.558,-0.201 -1.129,-0.389 -1.411,-0.482 -0.356,-0.116 -0.643,-0.212 -0.816,-0.276 -1.5,-0.571 -2.979,-1.019 -4.403,-1.339 -2.929,-0.662 -5.814,-0.839 -8.574,-0.527 -2.879,0.325 -5.818,1.34 -8.989,3.108 -1.534,0.85 -3.005,1.776 -4.371,2.748 -0.264,0.19 -0.526,0.43 -0.798,0.672 -0.941,0.837 -2.231,1.982 -3.988,2.28 -2.268,0.386 -4.294,-0.884 -5.772,-1.807 -0.339,-0.211 -0.658,-0.415 -0.952,-0.57 -1.402,-0.733 -2.808,-1.451 -4.23,-2.135 -3.586,-1.718 -6.395,-2.822 -9.105,-3.577 -4.508,-1.259 -10.583,-1.84 -13.933,2.525 -0.424,0.552 -0.815,1.183 -1.156,1.859 l -0.171,0.35 c -0.648,1.378 -1.11,3.008 -1.418,5.031 -3.457,20.499 5.649,47.763 15.016,71.732 l 3.104,7.944 z"
             style="fill:#8cc63f;fill-opacity:1;fill-rule:nonzero;stroke:none"
             id="path26"
             inkscape:connector-curvature="0" /></g><g
           id="g28"
           transform="translate(191.5386,277.4063)"><path
             d="m 0,0 c 0.167,-4.105 2.198,-8.009 3.68,-10.856 0.513,-0.989 1.05,-1.962 1.608,-2.927 1.942,-3.365 4.301,-6.887 7.209,-10.767 8.375,-11.169 17.67,-20.545 27.63,-27.867 4.054,-2.981 10.267,-7.234 17.386,-9.752 8.309,-2.941 14.711,-3.183 19.574,-0.744 4.388,2.203 6.39,5.835 8.214,9.68 1.72,3.633 2.707,7.594 2.931,11.771 0.209,3.933 0.526,8.115 1.414,12.064 0.069,0.304 0.135,0.646 0.204,1.01 0.151,0.787 0.466,2.427 0.739,2.761 0.225,0.143 1.089,0.223 1.605,0.272 0.703,0.064 1.498,0.138 2.288,0.361 1.974,0.553 3.845,1.245 5.564,2.055 3.501,1.642 6.417,3.764 8.669,6.3 4.611,5.2 6.149,12.359 4.116,19.151 -0.577,1.925 -1.424,3.86 -2.516,5.754 -0.949,1.643 -2.135,3.288 -3.475,4.908 C 105.229,11.775 103.401,10.62 101.444,9.76 101.339,9.176 101.218,8.588 101.157,8.296 101.08,7.93 101.019,7.633 100.988,7.451 100.732,5.868 100.38,4.362 99.946,2.97 c -0.891,-2.868 -2.18,-5.455 -3.831,-7.689 -1.72,-2.331 -4.07,-4.369 -7.185,-6.231 -1.505,-0.903 -3.042,-1.715 -4.566,-2.411 -0.297,-0.134 -0.635,-0.242 -0.981,-0.356 -1.195,-0.396 -2.832,-0.941 -3.969,-2.313 -1.468,-1.772 -1.382,-4.161 -1.321,-5.903 0.014,-0.398 0.031,-0.777 0.017,-1.109 -0.065,-1.581 -0.147,-3.158 -0.265,-4.731 -0.304,-3.964 -0.753,-6.95 -1.455,-9.673 -1.164,-4.533 -3.699,-10.085 -9.153,-10.805 -0.691,-0.09 -1.432,-0.114 -2.188,-0.071 l -0.389,0.027 c -1.517,0.128 -3.16,0.542 -5.065,1.287 -19.482,7.256 -38.54,28.775 -54.615,48.871 l -5.328,6.659 z"
             style="fill:#1b75bc;fill-opacity:1;fill-rule:nonzero;stroke:none"
             id="path30"
             inkscape:connector-curvature="0" /></g><g
           id="g32"
           transform="translate(214.7041,274.7755)"><path
             d="m 0,0 c 3.639,-1.908 8.035,-2.102 11.243,-2.242 1.111,-0.049 2.223,-0.071 3.338,-0.071 3.885,0 8.114,0.282 12.928,0.861 13.86,1.668 26.627,5.029 37.949,9.994 4.609,2.021 11.398,5.274 17.139,10.181 6.701,5.725 10.111,11.148 10.431,16.58 0.287,4.901 -1.858,8.45 -4.276,11.952 -2.287,3.308 -5.224,6.142 -8.729,8.425 -3.3,2.148 -6.765,4.513 -9.74,7.257 -0.229,0.211 -0.491,0.439 -0.773,0.681 -0.607,0.525 -1.869,1.617 -2.022,2.021 -0.011,0.266 0.353,1.054 0.569,1.526 0.295,0.64 0.628,1.365 0.83,2.162 0.508,1.985 0.844,3.952 1.003,5.845 0.328,3.854 -0.052,7.44 -1.123,10.658 -2.197,6.592 -7.628,11.505 -14.527,13.14 -1.956,0.463 -4.054,0.697 -6.24,0.698 -1.898,0 -3.916,-0.205 -5.988,-0.555 0.405,-2.094 0.491,-4.255 0.259,-6.381 0.453,-0.382 0.901,-0.782 1.123,-0.98 0.278,-0.25 0.505,-0.451 0.648,-0.568 1.243,-1.014 2.371,-2.071 3.36,-3.143 2.038,-2.207 3.634,-4.617 4.743,-7.163 1.158,-2.655 1.748,-5.709 1.803,-9.338 0.03,-1.754 -0.035,-3.492 -0.194,-5.16 -0.033,-0.323 -0.109,-0.671 -0.183,-1.027 -0.254,-1.233 -0.601,-2.923 0.019,-4.594 0.801,-2.157 2.912,-3.277 4.451,-4.095 0.352,-0.187 0.688,-0.362 0.97,-0.54 1.336,-0.847 2.66,-1.706 3.964,-2.596 3.281,-2.245 5.642,-4.126 7.65,-6.096 3.344,-3.275 6.885,-8.245 4.781,-13.329 -0.268,-0.643 -0.617,-1.297 -1.033,-1.93 L 74.154,31.849 C 73.286,30.599 72.105,29.384 70.507,28.106 54.483,14.862 26.318,9.117 0.877,5.244 L -7.554,3.96 Z"
             style="fill:#8cc63f;fill-opacity:1;fill-rule:nonzero;stroke:none"
             id="path34"
             inkscape:connector-curvature="0" /></g><g
           id="g36"
           transform="translate(228.5659,293.5216)"><path
             d="m 0,0 c 3.472,2.197 5.837,5.908 7.562,8.615 0.599,0.939 1.174,1.891 1.731,2.856 1.943,3.365 3.814,7.168 5.719,11.627 5.486,12.837 8.958,25.574 10.32,37.861 0.554,5.002 1.131,12.509 -0.249,19.933 -1.606,8.667 -4.599,14.331 -9.143,17.324 -4.101,2.699 -8.247,2.616 -12.489,2.273 -4.007,-0.326 -7.93,-1.453 -11.66,-3.347 -3.51,-1.785 -7.291,-3.602 -11.154,-4.807 -0.299,-0.093 -0.627,-0.206 -0.977,-0.329 -0.758,-0.263 -2.335,-0.809 -2.761,-0.74 -0.236,0.124 -0.737,0.832 -1.037,1.255 -0.407,0.576 -0.869,1.227 -1.458,1.8 -1.465,1.433 -3,2.707 -4.56,3.791 -3.174,2.211 -6.469,3.675 -9.792,4.357 -6.807,1.394 -13.778,-0.854 -18.643,-6.011 -1.379,-1.462 -2.63,-3.163 -3.724,-5.055 -0.95,-1.643 -1.781,-3.494 -2.514,-5.463 2.016,-0.696 3.931,-1.702 5.655,-2.967 0.558,0.202 1.128,0.39 1.411,0.483 0.356,0.116 0.643,0.212 0.816,0.276 1.499,0.57 2.979,1.019 4.403,1.339 2.929,0.662 5.814,0.839 8.574,0.527 2.879,-0.325 5.818,-1.34 8.989,-3.108 1.533,-0.851 3.005,-1.777 4.371,-2.748 0.264,-0.19 0.526,-0.429 0.798,-0.672 0.941,-0.837 2.231,-1.982 3.988,-2.28 2.268,-0.386 4.294,0.883 5.772,1.806 0.338,0.212 0.657,0.416 0.952,0.571 1.402,0.733 2.808,1.451 4.23,2.135 3.586,1.719 6.395,2.823 9.105,3.576 4.508,1.259 10.583,1.84 13.933,-2.523 0.424,-0.554 0.815,-1.184 1.156,-1.859 l 0.171,-0.352 c 0.648,-1.377 1.11,-3.007 1.418,-5.03 C 14.37,54.615 5.263,27.351 -4.104,3.381 l -3.103,-7.943 z"
             style="fill:#1b75bc;fill-opacity:1;fill-rule:nonzero;stroke:none"
             id="path38"
             inkscape:connector-curvature="0" /></g><g
           id="g40"
           transform="translate(219.2617,314.899)"><path
             d="m 0,0 c -0.167,4.106 -2.198,8.009 -3.68,10.857 -0.513,0.988 -1.05,1.962 -1.608,2.927 -1.942,3.364 -4.3,6.886 -7.209,10.766 -8.375,11.169 -17.67,20.545 -27.629,27.867 -4.055,2.982 -10.267,7.235 -17.387,9.752 -8.309,2.942 -14.71,3.183 -19.574,0.744 -4.388,-2.202 -6.389,-5.834 -8.213,-9.679 -1.721,-3.634 -2.707,-7.595 -2.932,-11.772 -0.209,-3.932 -0.526,-8.115 -1.414,-12.063 -0.069,-0.305 -0.135,-0.646 -0.204,-1.011 -0.151,-0.787 -0.466,-2.427 -0.738,-2.761 -0.226,-0.143 -1.09,-0.222 -1.606,-0.271 -0.702,-0.064 -1.497,-0.138 -2.288,-0.361 -1.973,-0.553 -3.845,-1.245 -5.564,-2.055 -3.501,-1.643 -6.416,-3.765 -8.668,-6.301 -4.611,-5.199 -6.15,-12.359 -4.117,-19.151 0.578,-1.925 1.424,-3.859 2.516,-5.753 0.949,-1.644 2.136,-3.289 3.475,-4.908 1.611,1.398 3.439,2.553 5.396,3.414 0.105,0.584 0.227,1.172 0.288,1.463 0.077,0.366 0.137,0.663 0.168,0.845 0.257,1.583 0.608,3.089 1.042,4.482 0.891,2.868 2.181,5.455 3.831,7.689 1.721,2.331 4.07,4.368 7.186,6.23 1.504,0.904 3.041,1.716 4.565,2.412 0.297,0.134 0.635,0.241 0.981,0.355 1.195,0.397 2.833,0.941 3.969,2.314 1.468,1.772 1.382,4.16 1.322,5.902 -0.014,0.399 -0.031,0.777 -0.018,1.109 0.066,1.581 0.147,3.158 0.266,4.731 0.304,3.965 0.753,6.95 1.455,9.674 1.163,4.533 3.698,10.085 9.152,10.804 0.691,0.09 1.432,0.115 2.188,0.071 l 0.389,-0.027 c 1.517,-0.128 3.16,-0.542 5.066,-1.287 19.481,-7.255 38.539,-28.774 54.614,-48.871 l 5.328,-6.659 z"
             style="fill:#8cc63f;fill-opacity:1;fill-rule:nonzero;stroke:none"
             id="path42"
             inkscape:connector-curvature="0" /></g><path
           d="m 361.561,234.198 h -21.743 v 89.479 h 21.743 z m 0.836,115.07 c 0,-7.025 -4.851,-12.043 -11.708,-12.043 -6.857,0 -11.708,5.018 -11.708,12.043 0,7.024 4.851,12.042 11.708,12.042 6.857,0 11.708,-5.018 11.708,-12.042"
           style="fill:#231f20;fill-opacity:1;fill-rule:nonzero;stroke:none"
           id="path44"
           inkscape:connector-curvature="0" /><g
           id="g46"
           transform="translate(462.9141,269.3214)"><path
             d="m 0,0 c 0,9.533 -8.53,15.387 -22.746,15.22 h -28.433 v -30.942 h 28.433 C -8.53,-15.889 0,-10.035 0,0 m -4.182,48.67 c 0,8.864 -7.024,14.049 -18.564,13.882 H -51.179 V 34.119 h 28.433 c 11.54,0 18.564,5.352 18.564,14.551 m 22.913,4.014 c 0,-12.878 -7.693,-22.746 -20.404,-25.924 15.555,-2.843 24.921,-14.049 24.921,-29.604 0,-20.07 -16.559,-32.279 -43.318,-32.279 H -73.591 V 81.953 h 52.015 c 24.921,0 40.307,-11.206 40.307,-29.269"
             style="fill:#231f20;fill-opacity:1;fill-rule:nonzero;stroke:none"
             id="path48"
             inkscape:connector-curvature="0" /></g><g
           id="g50"
           transform="translate(559.2529,324.5143)"><path
             d="m 0,0 v -21.074 c -18.899,1.171 -30.439,-9.868 -30.439,-26.091 v -43.151 h -21.743 v 89.48 h 21.743 V -18.063 C -24.418,-6.355 -13.882,-0.167 0,0"
             style="fill:#231f20;fill-opacity:1;fill-rule:nonzero;stroke:none"
             id="path52"
             inkscape:connector-curvature="0" /></g><g
           id="g54"
           transform="translate(657.0977,323.6778)"><path
             d="m 0,0 v -89.479 h -21.91 v 16.557 c -6.189,-11.875 -16.893,-17.393 -31.109,-17.393 -20.07,0 -32.447,13.212 -32.447,34.286 V 0 h 21.91 v -49.674 c 0,-12.544 7.192,-20.07 19.234,-20.07 14.05,0.168 22.412,11.206 22.412,25.59 V 0 Z"
             style="fill:#231f20;fill-opacity:1;fill-rule:nonzero;stroke:none"
             id="path56"
             inkscape:connector-curvature="0" /></g><g
           id="g58"
           transform="translate(699.748,323.6778)"><path
             d="M 0,0 18.565,-29.102 37.632,0 H 61.549 L 33.116,-43.652 63.556,-89.479 H 38.468 L 18.565,-58.203 -3.011,-89.479 H -27.262 L 4.015,-43.652 -25.088,0 Z"
             style="fill:#231f20;fill-opacity:1;fill-rule:nonzero;stroke:none"
             id="path60"
             inkscape:connector-curvature="0" /></g></g></g></g></svg>